<?xml version="1.0" encoding="utf-8"?><svg viewBox="0 0 30 31" xmlns="http://www.w3.org/2000/svg" xmlns:xlink="http://www.w3.org/1999/xlink"><style>:root>svg{display:none}:root>svg:target{display:block}</style><svg fill="none" viewBox="0 0 25 21" id="arrows-right" xmlns="http://www.w3.org/2000/svg"><path d="m15.369 19.587 8.213-8.15a1.92 1.92 0 0 0 0-2.72L15.37.563a1.958 1.958 0 0 0-2.746 0 1.922 1.922 0 0 0 0 2.719l4.806 4.767H2.014a2.012 2.012 0 1 0 0 4.027h15.444l-4.835 4.792a1.92 1.92 0 0 0 0 2.718 1.953 1.953 0 0 0 2.746.002Z" fill="#fff"/></svg><svg fill="none" viewBox="0 0 30 31" id="instagram" xmlns="http://www.w3.org/2000/svg"><path d="M21.539.512H7.994C3.586.512 0 4.096 0 8.502V22.04c0 4.405 3.586 7.99 7.994 7.99H21.54c4.408 0 7.994-3.585 7.994-7.99V8.502c0-4.406-3.586-7.99-7.994-7.99Zm6.263 21.528c0 3.451-2.81 6.26-6.263 6.26H7.994a6.268 6.268 0 0 1-6.263-6.26V8.502c0-3.452 2.81-6.26 6.263-6.26H21.54a6.268 6.268 0 0 1 6.263 6.26V22.04Z" fill="#fff"/><path d="M14.767 7.2c-4.453 0-8.076 3.62-8.076 8.07 0 4.451 3.623 8.072 8.076 8.072 4.452 0 8.075-3.62 8.075-8.071 0-4.45-3.623-8.071-8.075-8.071Zm0 14.411c-3.498 0-6.344-2.844-6.344-6.34s2.846-6.34 6.344-6.34a6.35 6.35 0 0 1 6.343 6.34 6.35 6.35 0 0 1-6.343 6.34ZM23.035 4.333a2.388 2.388 0 0 0-2.386 2.385 2.388 2.388 0 0 0 2.386 2.385 2.388 2.388 0 0 0 2.386-2.385 2.388 2.388 0 0 0-2.386-2.385Zm0 3.04a.655.655 0 1 1 .001-1.311.655.655 0 0 1-.001 1.31Z" fill="#fff"/></svg></svg>